#N canvas 135 155 1160 673 12;
#X obj 33 190 soundfiler;
#X obj 374 45 table sample01 44100;
#X obj 352 537 tabread4~ sample01;
#X floatatom 409 151 15 0 0 0 - - - 0;
#X obj 409 121 expr 44100 / $f1;
#X obj 352 456 phasor~;
#X obj 352 433 sig~;
#X obj 352 295 list;
#X obj 33 216 s numberSamples;
#X obj 409 94 r numberSamples;
#X obj 370 479 r numberSamples;
#X obj 352 507 *~;
#X obj 498 330 0;
#X obj 352 328 *;
#X obj 397 267 t b f;
#X text 526 150 phasor frequency;
#X text 553 303 stop and reset to 0;
#X text 500 236 speed rate (between -2 and 2);
#X obj 533 331 r load;
#X obj 498 549 line~;
#X obj 447 438 f;
#X obj 498 417 t b b;
#X obj 530 467 t b b;
#X obj 562 493 1;
#X obj 498 443 0;
#X obj 351 583 *~;
#X msg 498 522 \$1 20;
#X obj 530 442 del 20;
#X text 549 550 vol ramp when for start point;
#X obj 397 187 r load;
#X obj 397 212 1;
#X obj 315 267 r start;
#X obj 498 303 r stop;
#X obj 404 237 r speedRate;
#X obj 351 614 send~ sample;
#X obj 154 258 r on_off;
#X obj 154 285 sel 0 1;
#X obj 177 331 s start;
#X obj 127 331 s stop;
#X text 601 364 start point (between 0 and 1);
#X text 267 267 start;
#X obj 832 345 random 1000;
#X obj 832 370 * 0.001;
#X floatatom 509 388 5 0 0 0 - - - 0;
#X obj 832 318 metro 500;
#X obj 920 368 t b;
#X obj 892 289 + 100;
#X obj 892 262 random 100;
#X obj 832 211 r randomOffset;
#X obj 509 363 r offset;
#X obj 33 46 sel 1 2 3 4;
#X obj 33 16 inlet;
#X msg 33 81 read -resize ../samples/Textile00.wav sample01;
#X msg 43 107 read -resize ../samples/machine01.wav sample01;
#X msg 53 132 read -resize ../samples/machine02.wav sample01;
#X msg 61 157 read -resize ../samples/machine03.wav sample01;
#X connect 0 0 8 0;
#X connect 2 0 25 0;
#X connect 3 0 7 1;
#X connect 4 0 3 0;
#X connect 5 0 11 0;
#X connect 6 0 5 0;
#X connect 7 0 13 0;
#X connect 9 0 4 0;
#X connect 10 0 11 1;
#X connect 11 0 2 0;
#X connect 12 0 6 0;
#X connect 12 0 21 0;
#X connect 13 0 6 0;
#X connect 14 0 7 0;
#X connect 14 1 13 1;
#X connect 18 0 12 0;
#X connect 19 0 25 1;
#X connect 20 0 5 1;
#X connect 21 0 24 0;
#X connect 21 1 27 0;
#X connect 22 0 20 0;
#X connect 22 1 23 0;
#X connect 23 0 26 0;
#X connect 24 0 26 0;
#X connect 25 0 34 0;
#X connect 26 0 19 0;
#X connect 27 0 22 0;
#X connect 29 0 30 0;
#X connect 30 0 14 0;
#X connect 31 0 7 0;
#X connect 32 0 12 0;
#X connect 33 0 14 0;
#X connect 35 0 36 0;
#X connect 36 0 38 0;
#X connect 36 1 37 0;
#X connect 41 0 42 0;
#X connect 41 0 45 0;
#X connect 42 0 43 0;
#X connect 43 0 21 0;
#X connect 43 0 20 1;
#X connect 44 0 41 0;
#X connect 45 0 47 0;
#X connect 46 0 44 1;
#X connect 47 0 46 0;
#X connect 48 0 44 0;
#X connect 49 0 43 0;
#X connect 50 0 52 0;
#X connect 50 1 53 0;
#X connect 50 2 54 0;
#X connect 50 3 55 0;
#X connect 51 0 50 0;
#X connect 52 0 0 0;
#X connect 53 0 0 0;
#X connect 54 0 0 0;
#X connect 55 0 0 0;
