#N canvas 0 25 1219 687 10;
#X obj 42 370 +~;
#X obj 102 239 osc~;
#X obj 102 280 *~;
#X obj 102 199 *~;
#X obj 163 226 *~;
#X obj 310 630 osc~;
#X obj 113 166 receive~ harmonicRatio;
#X obj 182 192 receive~ modulationIndex;
#X obj 845 658 send~ harmonicRatio;
#X obj 1045 676 send~ modulationIndex;
#X obj 44 65 sig~ 300;
#X obj 696 661 send~ amplitude;
#X obj 86 640 receive~ amplitude;
#X obj 43 685 *~;
#X obj 1439 571 send~ modulationIndex2;
#X obj 1244 633 send~ harmonicRatio2;
#X obj 311 479 osc~;
#X obj 311 513 *~;
#X obj 311 439 *~;
#X obj 327 366 receive~ harmonicRatio2;
#X obj 356 482 receive~ modulationIndex2;
#X obj 569 459 line~;
#X msg 570 430 \$1 10;
#X obj 42 464 osc~;
#X obj 42 503 *~;
#X obj 41 424 *~;
#X obj 85 367 receive~ harmonicRatio3;
#X obj 88 437 receive~ modulationIndex3;
#X obj 1617 573 send~ harmonicRatio3;
#X obj 42 640 osc~;
#X obj 1453 598 send~ modulationIndex3;
#X obj 637 573 print;
#X obj 516 372 s metro;
#X obj 716 769 pack f f f f f f, f 38;
#X obj 855 339 adc~ 4;
#X obj 1047 348 adc~ 5;
#X obj 1148 301 adc~ 6;
#X obj 1442 277 adc~ 7;
#X obj 1603 285 adc~ 8;
#X obj 566 310 loadbang;
#X obj 686 336 adc~ 3;
#X obj 41 717 dac~ 1 2 27;
#X obj 690 377 derivative;
#X obj 729 483 line~;
#X msg 730 454 \$1 10;
#X obj 568 335 metro 10;
#X obj 696 607 clip~ 0 1;
#X obj 697 532 *~;
#X obj 571 399 > 0.25;
#X obj 857 382 derivative;
#X obj 1048 382 derivative;
#X obj 1048 559 scale 0.03 0.1 30 600;
#X obj 1164 360 derivative;
#X obj 1450 351 derivative;
#X obj 1605 364 derivative;
#X obj 1419 455 scale 0.02 0.2 200 800;
#X obj 1584 458 scale 0.02 0.1 1 300;
#X obj 1052 636 line~;
#X msg 1051 608 \$1 10;
#X obj 1260 594 line~;
#X msg 1259 566 \$1 10;
#X obj 1418 520 line~;
#X msg 1417 492 \$1 10;
#X obj 1599 519 line~;
#X msg 1598 491 \$1 10;
#X obj 716 801 print;
#X obj 847 607 line~;
#X msg 846 579 \$1 10;
#X obj 1234 513 scale 0.02 0.1 2 250;
#X obj 839 541 scale 0.04 0.07 0.02 0.1;
#X obj 688 404 scale 0.02 0.2 0 1;
#X connect 0 0 18 0;
#X connect 0 0 25 0;
#X connect 1 0 2 0;
#X connect 2 0 0 1;
#X connect 3 0 4 0;
#X connect 3 0 1 0;
#X connect 5 0 13 0;
#X connect 6 0 3 1;
#X connect 7 0 4 1;
#X connect 7 0 2 1;
#X connect 10 0 3 0;
#X connect 10 0 0 0;
#X connect 12 0 13 1;
#X connect 13 0 41 0;
#X connect 13 0 41 1;
#X connect 16 0 17 0;
#X connect 17 0 5 0;
#X connect 18 0 16 0;
#X connect 19 0 18 1;
#X connect 20 0 17 1;
#X connect 21 0 47 1;
#X connect 22 0 21 0;
#X connect 23 0 24 0;
#X connect 24 0 29 0;
#X connect 25 0 23 0;
#X connect 26 0 25 1;
#X connect 27 0 24 1;
#X connect 29 0 13 0;
#X connect 33 0 65 0;
#X connect 34 0 49 0;
#X connect 35 0 50 0;
#X connect 36 0 52 0;
#X connect 37 0 53 0;
#X connect 38 0 54 0;
#X connect 39 0 45 0;
#X connect 40 0 42 0;
#X connect 42 0 33 0;
#X connect 42 0 70 0;
#X connect 43 0 47 0;
#X connect 44 0 43 0;
#X connect 45 0 32 0;
#X connect 46 0 11 0;
#X connect 47 0 46 0;
#X connect 48 0 22 0;
#X connect 49 0 33 1;
#X connect 49 0 69 0;
#X connect 50 0 51 0;
#X connect 50 0 33 2;
#X connect 51 0 58 0;
#X connect 52 0 33 3;
#X connect 52 0 68 0;
#X connect 53 0 33 4;
#X connect 53 0 55 0;
#X connect 54 0 56 0;
#X connect 54 0 33 5;
#X connect 55 0 62 0;
#X connect 56 0 64 0;
#X connect 57 0 9 0;
#X connect 58 0 57 0;
#X connect 59 0 15 0;
#X connect 60 0 59 0;
#X connect 61 0 14 0;
#X connect 62 0 61 0;
#X connect 63 0 28 0;
#X connect 64 0 63 0;
#X connect 66 0 8 0;
#X connect 67 0 66 0;
#X connect 68 0 60 0;
#X connect 69 0 67 0;
#X connect 70 0 44 0;
#X connect 70 0 48 0;
