#N canvas 187 169 675 474 12;
#X obj 272 356 snapshot~;
#X obj 209 311 r metro;
#X obj 315 173 -~;
#X obj 315 199 abs~;
#X obj 316 258 *~ 10;
#X obj 316 289 clip~ 0 1;
#X obj 315 230 lop~ 20;
#X obj 350 104 delwrite~ \$0-dev 50;
#X obj 331 136 delread~ \$0-dev 10;
#X obj 315 62 inlet~;
#X obj 272 389 outlet;
#X obj 367 389 outlet~;
#X connect 0 0 10 0;
#X connect 1 0 0 0;
#X connect 2 0 3 0;
#X connect 3 0 6 0;
#X connect 4 0 5 0;
#X connect 5 0 0 0;
#X connect 5 0 11 0;
#X connect 6 0 4 0;
#X connect 8 0 2 1;
#X connect 9 0 7 0;
#X connect 9 0 2 0;
