#N canvas 271 169 675 474 12;
#X obj 316 289 clip~ 0 1;
#X obj 315 36 inlet~;
#X obj 367 389 outlet~;
#X obj 317 73 lop~ 16;
#X obj 315 221 lop~ 16;
#X obj 410 73 hip~ 3;
#X obj 410 96 abs~;
#X obj 318 168 *~;
#X obj 316 258 *~ 100;
#X obj 421 154 clip~ 0 1;
#X obj 412 128 -~ 0.005;
#X obj 410 179 lop~ 3;
#X connect 0 0 2 0;
#X connect 1 0 3 0;
#X connect 1 0 5 0;
#X connect 3 0 7 0;
#X connect 4 0 8 0;
#X connect 5 0 6 0;
#X connect 6 0 10 0;
#X connect 7 0 4 0;
#X connect 8 0 0 0;
#X connect 9 0 11 0;
#X connect 10 0 9 0;
#X connect 11 0 7 1;
