#N canvas 0 68 1728 922 10;
#X obj 42 370 +~;
#X obj 102 239 osc~;
#X obj 102 280 *~;
#X obj 102 199 *~;
#X obj 163 226 *~;
#X obj 310 630 osc~;
#X obj 113 166 receive~ harmonicRatio;
#X obj 182 192 receive~ modulationIndex;
#X obj 897 594 send~ harmonicRatio;
#X obj 1106 600 send~ modulationIndex;
#X obj 44 65 sig~ 300;
#X obj 733 602 send~ amplitude;
#X obj 81 834 receive~ amplitude;
#X obj 54 885 *~;
#X obj 1439 571 send~ modulationIndex2;
#X obj 1279 598 send~ harmonicRatio2;
#X obj 311 479 osc~;
#X obj 311 513 *~;
#X obj 311 439 *~;
#X obj 327 366 receive~ harmonicRatio2;
#X obj 356 482 receive~ modulationIndex2;
#X obj 569 459 line~;
#X msg 570 430 \$1 10;
#X obj 719 554 *~;
#X obj 42 464 osc~;
#X obj 42 503 *~;
#X obj 41 424 *~;
#X obj 85 367 receive~ harmonicRatio3;
#X obj 88 437 receive~ modulationIndex3;
#X obj 1617 573 send~ harmonicRatio3;
#X obj 42 640 osc~;
#X obj 1453 598 send~ modulationIndex3;
#X obj 571 399 > 0.2;
#X obj 45 947 dac~ 1 2;
#X obj 730 675 snapshot~;
#X obj 897 659 snapshot~;
#X obj 1090 680 snapshot~;
#X obj 1275 679 snapshot~;
#X obj 1424 681 snapshot~;
#X obj 1594 685 snapshot~;
#X obj 741 798 print;
#X obj 764 644 r metro;
#X obj 898 630 r metro;
#X obj 1099 640 r metro, f 10;
#X obj 1282 637 r metro, f 10;
#X obj 1420 635 r metro, f 10;
#X obj 1606 639 r metro, f 10;
#X obj 743 769 pack f f f f f f, f 149;
#X obj 728 132 ctlin;
#X obj 729 165 pack 0 0;
#X obj 731 201 route 0 1 2 3 4 5 6 7, f 110;
#X obj 722 412 scale 1 126 0 1;
#X obj 602 613 metro 50;
#X obj 602 588 loadmess 1;
#X obj 601 638 s metro;
#X obj 906 417 scale 1 126 0.02 0.1;
#X obj 906 470 sig~;
#X obj 719 489 sig~;
#X obj 1086 422 scale 1 126 30 600;
#X obj 1087 479 sig~;
#X obj 1263 427 scale 1 126 2 500;
#X obj 1265 542 sig~;
#X obj 1415 424 scale 1 126 200 800;
#X obj 1421 546 sig~;
#X obj 1606 427 scale 1 126 1 300;
#X obj 1607 529 sig~;
#X floatatom 724 337 5 0 0 0 - - - 0;
#X floatatom 916 333 5 0 0 0 - - - 0;
#X floatatom 1093 341 5 0 0 0 - - - 0;
#X floatatom 1262 347 5 0 0 0 - - - 0;
#X floatatom 1408 350 5 0 0 0 - - - 0;
#X floatatom 1607 350 5 0 0 0 - - - 0;
#X connect 0 0 18 0;
#X connect 0 0 26 0;
#X connect 1 0 2 0;
#X connect 2 0 0 1;
#X connect 3 0 4 0;
#X connect 3 0 1 0;
#X connect 5 0 13 0;
#X connect 6 0 3 1;
#X connect 7 0 4 1;
#X connect 7 0 2 1;
#X connect 10 0 3 0;
#X connect 10 0 0 0;
#X connect 12 0 13 1;
#X connect 13 0 33 0;
#X connect 13 0 33 1;
#X connect 16 0 17 0;
#X connect 17 0 5 0;
#X connect 18 0 16 0;
#X connect 19 0 18 1;
#X connect 20 0 17 1;
#X connect 21 0 23 1;
#X connect 22 0 21 0;
#X connect 23 0 11 0;
#X connect 23 0 34 0;
#X connect 24 0 25 0;
#X connect 25 0 30 0;
#X connect 26 0 24 0;
#X connect 27 0 26 1;
#X connect 28 0 25 1;
#X connect 30 0 13 0;
#X connect 32 0 22 0;
#X connect 34 0 47 0;
#X connect 35 0 47 1;
#X connect 36 0 47 2;
#X connect 37 0 47 3;
#X connect 38 0 47 4;
#X connect 39 0 47 5;
#X connect 41 0 34 0;
#X connect 42 0 35 0;
#X connect 43 0 36 0;
#X connect 44 0 37 0;
#X connect 45 0 38 0;
#X connect 46 0 39 0;
#X connect 47 0 40 0;
#X connect 48 0 49 1;
#X connect 48 1 49 0;
#X connect 49 0 50 0;
#X connect 50 0 66 0;
#X connect 50 1 67 0;
#X connect 50 2 68 0;
#X connect 50 3 69 0;
#X connect 50 4 70 0;
#X connect 50 5 71 0;
#X connect 51 0 32 0;
#X connect 51 0 57 0;
#X connect 52 0 54 0;
#X connect 53 0 52 0;
#X connect 55 0 56 0;
#X connect 56 0 8 0;
#X connect 56 0 35 0;
#X connect 57 0 23 0;
#X connect 58 0 59 0;
#X connect 59 0 9 0;
#X connect 59 0 36 0;
#X connect 60 0 61 0;
#X connect 61 0 37 0;
#X connect 61 0 15 0;
#X connect 62 0 63 0;
#X connect 63 0 14 0;
#X connect 63 0 31 0;
#X connect 63 0 38 0;
#X connect 64 0 65 0;
#X connect 65 0 29 0;
#X connect 65 0 39 0;
#X connect 66 0 51 0;
#X connect 67 0 55 0;
#X connect 68 0 58 0;
#X connect 69 0 60 0;
#X connect 70 0 62 0;
#X connect 71 0 64 0;
