#N canvas 0 23 450 300 12;
#X obj 39 49 inlet;
#X obj 39 198 outlet;
#X obj 39 170 expr $f4 + ($f1 - $f2) * (($f5 - $f4) / ($f3 - $f2))
;
#X obj 39 78 t f b;
#X obj 140 118 f \$1;
#X obj 287 118 f \$4;
#X obj 248 118 f \$3;
#X obj 204 118 f \$2;
#X text 99 68 Arguments: minIn maxIn minOut maxOut;
#X connect 0 0 3 0;
#X connect 2 0 1 0;
#X connect 3 0 2 0;
#X connect 3 1 4 0;
#X connect 3 1 5 0;
#X connect 3 1 6 0;
#X connect 3 1 7 0;
#X connect 4 0 2 1;
#X connect 5 0 2 4;
#X connect 6 0 2 3;
#X connect 7 0 2 2;
