#N canvas 258 99 1108 627 12;
#X obj 33 26 loadbang;
#X msg 31 57 \; pd dsp 1;
#X obj 264 41 adc~ 3 4 5 6 7 8 9;
#X obj 192 532 dac~ 1 2 27 28 29 30;
#X obj 247 435 r~ input01;
#X obj 330 507 r~ input04;
#X obj 308 480 r~ input03;
#X obj 274 459 r~ input02;
#X text 733 77 send signal to scope e.g. [dac~ 27];
#X text 193 557 output 1 & 2 for audio stereo;
#X obj 202 403 expr~ $v1 - 0.333333 * pow($v1 \, 3);
#X obj 404 86 s~ input02;
#X obj 520 80 s~ input03;
#X obj 638 81 s~ input04;
#X obj 265 78 filt;
#X obj 272 147 s~ input01;
#X obj 355 68 filt;
#X obj 502 53 filt;
#X obj 620 54 filt;
#X obj 422 258 osc~;
#X obj 203 309 *~;
#X obj 505 158 osc~;
#X obj 424 208 *~;
#X obj 201 374 *~ 0.2;
#X obj 406 119 expr~ pow($v1 \, 4) * 440 + 55;
#X obj 640 120 expr~ pow($v1 \, 4) * 440 + 55;
#X obj 214 186 *~ 1.5;
#X connect 0 0 1 0;
#X connect 2 0 14 0;
#X connect 2 1 16 0;
#X connect 2 2 17 0;
#X connect 2 3 18 0;
#X connect 4 0 3 2;
#X connect 5 0 3 5;
#X connect 6 0 3 4;
#X connect 7 0 3 3;
#X connect 10 0 3 0;
#X connect 10 0 3 1;
#X connect 14 0 15 0;
#X connect 14 0 26 0;
#X connect 16 0 11 0;
#X connect 16 0 24 0;
#X connect 17 0 12 0;
#X connect 17 0 22 1;
#X connect 18 0 13 0;
#X connect 18 0 25 0;
#X connect 19 0 20 0;
#X connect 20 0 23 0;
#X connect 21 0 22 0;
#X connect 22 0 19 0;
#X connect 23 0 10 0;
#X connect 24 0 19 0;
#X connect 25 0 21 0;
#X connect 26 0 20 1;
