#N canvas 398 169 450 300 12;
#X floatatom 122 161 5 0 0 0 - - - 0;
#X floatatom 122 104 5 0 0 0 - - - 0;
#X obj 122 137 expr $f2 + $f3*($f1-$f2);
#X obj 272 65 loadbang;
#X obj 121 70 inlet;
#X obj 122 213 outlet;
#X obj 272 98 f \$1;
#X connect 0 0 2 1;
#X connect 0 0 5 0;
#X connect 1 0 2 0;
#X connect 2 0 0 0;
#X connect 3 0 6 0;
#X connect 4 0 1 0;
#X connect 6 0 2 2;
