#N canvas 170 190 1108 627 12;
#X obj 33 26 loadbang;
#X obj 33 54 s load;
#X msg 85 54 \; pd dsp 1;
#X obj 25 282 tgl 25 0 on_off on_off_rcv empty 17 7 0 10 #00f8fc #000000
#000000 0 1;
#X text 57 283 On Off;
#X obj 278 15 adc~ 3 4 5 6 7 8 9;
#X obj 185 21 loadbang;
#X obj 185 75 s metro;
#X obj 192 532 dac~ 1 2 27 28 29 30;
#X obj 185 48 metro 50;
#X obj 247 435 r~ input01;
#X obj 330 507 r~ input04;
#X obj 301 483 r~ input03;
#X obj 274 459 r~ input02;
#X obj 25 231 r load;
#X obj 25 255 1;
#X text 717 50 shape input: smooth and derivative;
#X text 733 77 send signal to scope e.g. [dac~ 27];
#X text 193 557 output 1 & 2 for audio stereo;
#X obj 18 117 table sample01 44100;
#X obj 28 141 table sample02 44100;
#X obj 38 164 table sample03 44100;
#X obj 48 189 table sample04 44100;
#X obj 202 180 soundfiler;
#X obj 202 123 loadbang;
#X obj 202 230 tabread4~ sample01;
#X obj 353 212 soundfiler;
#X obj 505 240 soundfiler;
#X obj 652 271 soundfiler;
#X obj 353 262 tabread4~ sample02;
#X obj 505 290 tabread4~ sample03;
#X obj 652 321 tabread4~ sample04;
#X obj 201 374 *~ 1;
#X obj 202 403 expr~ $v1 - 0.333333 * pow($v1 \, 3);
#X obj 404 78 s~ input02;
#X obj 520 80 s~ input03;
#X obj 638 81 s~ input04;
#X obj 276 51 filt;
#X obj 294 78 s~ input01;
#X obj 386 51 filt;
#X obj 502 53 filt;
#X obj 620 54 filt;
#X obj 202 206 synth2;
#X obj 353 238 synth2;
#X obj 505 266 synth2;
#X obj 652 297 synth2;
#X msg 202 154 read -resize ../samples/edit-001.wav sample01;
#X msg 353 186 read -resize ../samples/edit-002.wav sample02;
#X msg 505 214 read -resize ../samples/edit-003.wav sample03;
#X msg 652 245 read -resize ../samples/edit-004.wav sample04;
#X connect 0 0 1 0;
#X connect 0 0 2 0;
#X connect 5 0 37 0;
#X connect 5 1 39 0;
#X connect 5 2 40 0;
#X connect 5 3 41 0;
#X connect 6 0 9 0;
#X connect 9 0 7 0;
#X connect 10 0 8 2;
#X connect 11 0 8 5;
#X connect 12 0 8 4;
#X connect 13 0 8 3;
#X connect 14 0 15 0;
#X connect 15 0 3 0;
#X connect 23 0 42 0;
#X connect 24 0 46 0;
#X connect 24 0 47 0;
#X connect 24 0 48 0;
#X connect 24 0 49 0;
#X connect 25 0 32 0;
#X connect 26 0 43 0;
#X connect 27 0 44 0;
#X connect 28 0 45 0;
#X connect 29 0 32 0;
#X connect 30 0 32 0;
#X connect 31 0 32 0;
#X connect 32 0 33 0;
#X connect 33 0 8 0;
#X connect 33 0 8 1;
#X connect 37 1 38 0;
#X connect 37 1 42 1;
#X connect 39 1 34 0;
#X connect 39 1 43 1;
#X connect 40 1 35 0;
#X connect 40 1 44 1;
#X connect 41 1 36 0;
#X connect 41 1 45 1;
#X connect 42 0 25 0;
#X connect 43 0 29 0;
#X connect 44 0 30 0;
#X connect 45 0 31 0;
#X connect 46 0 23 0;
#X connect 47 0 26 0;
#X connect 48 0 27 0;
#X connect 49 0 28 0;
