#N canvas 515 156 627 650 12;
#X obj 245 585 outlet~;
#X floatatom 270 163 15 0 0 0 - - - 0;
#X obj 270 133 expr 44100 / $f1;
#X obj 246 431 phasor~;
#X obj 246 482 *~;
#X text 388 163 phasor frequency;
#X text 388 32 speed rate (between -2 and 2);
#X obj 48 233 r on_off;
#X obj 48 260 sel 0 1;
#X obj 71 306 s start;
#X obj 21 306 s stop;
#X obj 81 52 inlet;
#X obj 342 29 inlet~;
#X obj 245 340 *~;
#X connect 1 0 13 1;
#X connect 2 0 1 0;
#X connect 3 0 4 0;
#X connect 4 0 0 0;
#X connect 7 0 8 0;
#X connect 8 0 10 0;
#X connect 8 1 9 0;
#X connect 11 0 2 0;
#X connect 11 0 4 1;
#X connect 12 0 13 0;
#X connect 13 0 3 0;
